<?xml version="1.0" standalone="no"?>
<!DOCTYPE svg PUBLIC "-//W3C//DTD SVG 20010904//EN"
 "http://www.w3.org/TR/2001/REC-SVG-20010904/DTD/svg10.dtd">
<svg version="1.0" xmlns="http://www.w3.org/2000/svg"
 width="1024.000000pt" height="1024.000000pt" viewBox="0 0 1024.000000 1024.000000"
 preserveAspectRatio="xMidYMid meet">
<metadata>
Created by potrace 1.14, written by Peter Selinger 2001-2017
</metadata>
<g transform="translate(0.000000,1024.000000) scale(0.100000,-0.100000)"
fill="#000000" stroke="none">
<path d="M0 5120 l0 -5120 5120 0 5120 0 0 5120 0 5120 -5120 0 -5120 0 0
-5120z m4050 2840 l0 -250 247 -2 247 -3 1 -715 0 -715 -247 -3 -248 -2 0
-480 c0 -264 0 -483 0 -487 0 -5 112 -9 250 -11 l250 -2 0 -739 0 -739 -235
-7 c-129 -4 -241 -5 -250 -2 -13 6 -15 -23 -15 -248 l0 -255 -1375 0 -1375 0
0 2455 0 2455 1368 2 c752 2 1370 2 1375 0 4 -2 7 -115 7 -252z m4262 188
c372 -312 678 -578 678 -589 0 -9 -182 -216 -380 -433 -85 -93 -202 -222 -259
-288 -57 -65 -107 -118 -112 -118 -5 0 -53 39 -106 88 -54 48 -141 123 -193
167 -52 43 -129 109 -170 145 -41 37 -86 74 -100 83 -22 16 -98 17 -872 17
l-848 0 0 -470 0 -470 -527 2 -528 3 -3 900 c-2 495 0 928 3 963 l7 62 1668 0
1668 0 74 -62z m-1492 -2603 l0 -375 -965 0 -965 0 0 368 c0 203 3 372 7 375
3 4 438 7 965 7 l958 0 0 -375z m1606 -761 c88 -78 207 -184 265 -235 94 -84
290 -260 329 -295 12 -12 8 -21 -36 -67 -28 -28 -93 -101 -144 -162 -90 -106
-410 -474 -556 -640 l-71 -80 -1655 -3 -1655 -2 -6 727 c-3 400 -4 730 -1 734
2 4 239 7 527 6 l522 -2 3 -232 2 -233 713 0 c391 0 775 -2 852 -5 l140 -5 85
93 c194 210 515 546 521 544 4 -1 78 -66 165 -143z m-6226 -1786 c33 -93 370
-1103 370 -1110 0 -5 -53 -7 -117 -6 l-116 3 -52 155 -52 155 -269 3 -270 2
-50 -157 -50 -158 -121 -3 -121 -3 88 258 c49 142 137 401 197 576 l108 317
221 0 222 0 12 -32z m2020 -118 l0 -150 -275 0 -275 0 0 -90 0 -90 275 0 275
0 0 -335 0 -335 -390 0 -390 0 0 145 0 145 273 2 272 3 0 88 0 88 -270 2 -270
2 -3 213 -2 212 90 0 90 0 0 125 0 125 300 0 300 0 0 -150z m1570 0 l0 -150
-257 0 -256 0 6 -157 c4 -87 7 -213 7 -280 l0 -123 250 0 250 0 2 -127 c0 -71
1 -137 2 -148 0 -11 -5 -20 -12 -19 -6 1 -129 2 -272 3 l-260 1 0 120 0 120
-95 0 -95 0 0 330 0 330 95 0 95 0 0 118 c0 65 3 122 7 125 3 4 125 7 270 7
l263 0 0 -150z m800 25 l0 -125 90 0 90 0 0 -330 0 -330 -90 0 -90 0 0 -120 0
-120 -235 0 -235 0 0 120 0 120 -90 0 -90 0 0 330 0 330 90 0 90 0 0 125 0
125 235 0 235 0 0 -125z m930 0 l0 -125 95 0 95 0 0 -330 0 -330 -95 0 -95 0
0 -120 0 -120 -305 0 -305 0 0 568 c0 313 3 572 7 575 3 4 141 7 305 7 l298 0
0 -125z m1118 -27 l3 -148 -281 0 -280 0 0 -90 0 -90 190 0 191 0 -3 -97 -3
-98 -187 -3 -188 -2 0 -90 0 -90 280 0 280 0 0 -145 0 -145 -390 0 -390 0 0
575 0 575 388 -2 387 -3 3 -147z m-5358 -638 l0 -360 -295 0 -295 0 0 145 0
145 175 0 175 0 0 90 0 90 -175 0 -175 0 0 125 0 125 295 0 295 0 0 -360z"/>
<path d="M2360 6748 l0 -475 568 1 567 1 3 468 2 467 -478 0 c-264 0 -520 3
-570 6 l-92 7 0 -475z"/>
<path d="M2360 4780 l0 -480 560 0 c308 0 563 -1 568 -2 4 -2 8 214 10 480 l2
482 -570 0 -570 0 0 -480z"/>
<path d="M1808 2585 l-45 -145 204 0 c162 0 204 3 201 13 -2 7 -23 72 -48 145
l-45 132 -111 0 -110 0 -46 -145z"/>
<path d="M6170 2450 l0 -280 185 0 185 0 0 280 0 280 -185 0 -185 0 0 -280z"/>
<path d="M7140 2450 l0 -280 170 0 170 0 0 280 0 280 -170 0 -170 0 0 -280z"/>
</g>
</svg>
